HIERARCHY
ROOT Hips
{
  OFFSET 24.8332 94.535 -270.017
  CHANNELS 6 Xposition Yposition Zposition Zrotation Xrotation Yrotation
  JOINT ToSpine
  {
    OFFSET -2.69724 7.43032 -0.144315
    CHANNELS 3 Zrotation Xrotation Yrotation
    JOINT Spine
    {
      OFFSET -0.0310711 10.7595 1.96963
      CHANNELS 3 Zrotation Xrotation Yrotation
      JOINT Spine1
      {
        OFFSET 19.9056 3.91189 0.764692
        CHANNELS 3 Zrotation Xrotation Yrotation
        JOINT Neck
        {
          OFFSET 25.9749 7.03908 -0.130764
          CHANNELS 3 Zrotation Xrotation Yrotation
          JOINT Head
          {
            OFFSET 9.52751 0.295786 -0.907742
            CHANNELS 3 Zrotation Xrotation Yrotation
            End Site
            {
              OFFSET 16.4037 0.713936 2.7358
            }
          }
        }
        JOINT LeftShoulder
        {
          OFFSET 17.7449 4.33886 11.7777
          CHANNELS 3 Zrotation Xrotation Yrotation
          JOINT LeftArm
          {
            OFFSET 0.911315 1.27913 9.80584
            CHANNELS 3 Zrotation Xrotation Yrotation
            JOINT LeftForeArm
            {
              OFFSET 28.6126 1.18197 -3.53199
              CHANNELS 3 Zrotation Xrotation Yrotation
              JOINT LeftHand
              {
                OFFSET 27.5088 0.0218783 0.327423
                CHANNELS 3 Zrotation Xrotation Yrotation
                End Site
                {
                  OFFSET 18.6038 -0.000155887 0.382096
                }
              }
            }
          }
        }
        JOINT RightShoulder
        {
          OFFSET 17.1009 2.89543 -12.2328
          CHANNELS 3 Zrotation Xrotation Yrotation
          JOINT RightArm
          {
            OFFSET 1.4228 0.178766 -10.211
            CHANNELS 3 Zrotation Xrotation Yrotation
            JOINT RightForeArm
            {
              OFFSET 28.733 1.87905 2.64907
              CHANNELS 3 Zrotation Xrotation Yrotation
              JOINT RightHand
              {
                OFFSET 27.4588 0.290562 -0.101845
                CHANNELS 3 Zrotation Xrotation Yrotation
                End Site
                {
                  OFFSET 17.8396 -0.255518 -0.000602873
                }
              }
            }
          }
        }
      }
    }
  }
  JOINT LeftUpLeg
  {
    OFFSET -5.61296 -2.22332 -10.2353
    CHANNELS 3 Zrotation Xrotation Yrotation
    JOINT LeftLeg
    {
      OFFSET 2.56703 -44.7417 -7.93097
      CHANNELS 3 Zrotation Xrotation Yrotation
      JOINT LeftFoot
      {
        OFFSET 3.16933 -46.5642 -3.96578
        CHANNELS 3 Zrotation Xrotation Yrotation
        JOINT LeftToeBase
        {
          OFFSET 0.346054 -6.02161 12.8035
          CHANNELS 3 Zrotation Xrotation Yrotation
          End Site
          {
            OFFSET 0.134235 -1.35082 5.13018
          }
        }
      }
    }
  }
  JOINT RightUpLeg
  {
    OFFSET -5.7928 -1.72406 10.6446
    CHANNELS 3 Zrotation Xrotation Yrotation
    JOINT RightLeg
    {
      OFFSET -2.57161 -44.7178 -7.85259
      CHANNELS 3 Zrotation Xrotation Yrotation
      JOINT RightFoot
      {
        OFFSET -3.10148 -46.5936 -4.03391
        CHANNELS 3 Zrotation Xrotation Yrotation
        JOINT RightToeBase
        {
          OFFSET -0.0828122 -6.13587 12.8035
          CHANNELS 3 Zrotation Xrotation Yrotation
          End Site
          {
            OFFSET -0.131328 -1.35082 5.13018
          }
        }
      }
    }
  }
}
MOTION
Frames:	18
Frame Time:	0.0333333
24.8332 94.535 -270.017 1.00286 -82.916 -94.1903 -70.1915 0 88.8779 123.101 68.7892 -41.1566 7.77554 21.5509 -1.91197 -151.246 18.443 171.492 -144.735 54.2734 164.298 2.52682 -0.573184 -27.0676 -76.2937 39.7113 -88.4409 -1.21066 21.9598 -12.9347 8.74122 -0.671336 -6.84465 0.495418 -2.54787 25.2341 -62.2414 -56.6017 88.9246 15.1699 -10.8493 49.876 6.98465 0.190857 3.06594 -35.6935 -3.81767 93.0461 -5.10522 60.0094 -3.82167 8.47483 11.4624 -1.14806 -8.6672 -36.2038 9.42253 -47.8183 4.74111 92.5416 164.322 74.2845 -164.043 -7.38094 -4.87969 1.10133 4.19285 2.4086 -12.6104 
26.5642 93.3251 -256.694 8.09636 -80.989 -90.8439 -70.1915 0 88.8779 112.674 68.8876 -34.2255 8.07199 20.0348 -2.09477 -153.573 17.3547 172.7 -146.578 53.2459 164.236 2.69536 0.0105526 -27.9376 -89.0243 35.9288 -89.0033 -2.24528 27.7755 -9.61387 7.82006 -0.593058 -6.72053 0.431192 -1.89598 26.6127 -65.8273 -55.9877 82.6393 12.4523 -9.82222 45.3257 7.7074 0.123447 1.6268 -38.329 -7.56152 96.507 -7.44905 66.9556 -1.531 8.35008 8.74447 -1.12024 -10.8088 -43.3369 6.1649 -29.8088 0.704663 93.792 164.739 71.776 -159.641 -7.30247 -5.86745 1.10293 7.91387 -6.91126 -17.6909 
27.5874 94.1612 -242.928 20.8293 -82.4919 -74.9312 -70.1915 0 88.8779 118.775 66.4782 -36.7047 7.97128 19.0778 -1.28878 -153.511 17.838 174.173 -145.736 53.4932 163.683 2.55479 -0.863971 -27.9333 -91.3286 36.4528 -94.6958 -0.912622 20.9112 -11.1703 9.436 -0.806301 -7.80526 0.38032 -1.57683 25.7909 -65.7775 -56.9159 79.7447 6.50913 -4.37994 41.2319 7.5955 0.0447384 0.366497 -45.4868 -3.71783 95.5497 -14.3766 74.6047 -2.21822 5.45149 6.10885 -0.619513 -9.42135 -39.4735 8.92025 -22.6458 0.795171 87.9237 132.693 84.8588 -128.867 -7.96484 -6.0293 1.15026 8.08102 -14.2032 -12.2904 
27.2212 95.4875 -230.344 20.9912 -83.5872 -68.8606 -70.1915 0 88.8779 124.762 65.1413 -38.3341 8.68242 18.8159 1.75846 -153.15 17.7686 174.092 -145.351 53.2342 162.919 2.62107 -0.0231629 -27.1812 -76.3955 36.6086 -107.371 0.707325 -2.50526 -20.6164 8.20256 -0.699428 -7.75964 0.234003 -0.44006 25.8761 -61.336 -55.9716 82.2084 4.65783 -2.36589 39.7297 5.4798 0.106642 2.14408 -45.3861 5.33019 93.0049 -38.5729 83.3451 24.059 2.30756 2.84564 -0.244005 -3.06963 -9.00388 5.35325 -22.2199 6.95586 82.9661 6.2623 69.0285 -5.04698 -5.56537 -4.08065 0.938489 7.43984 -10.1701 -13.6431 
28.4023 96.3358 -217.477 60.7179 -80.0528 -27.8495 -70.1915 0 88.8779 123.354 63.0245 -36.0941 10.0973 16.202 3.1734 -151.808 18.1725 173.248 -146.409 54.0566 163.767 2.63484 -0.01883 -27.3252 -78.6978 35.7108 -106.778 -0.0392728 -2.77707 -35.5515 7.97793 -0.742837 -8.60889 0.160033 0.122001 26.0856 -57.0517 -54.2582 86.0452 4.78533 -2.54588 39.3085 4.39853 0.0522855 1.21264 -42.9523 0.683749 85.2985 -72.5957 85.8609 64.2107 2.86896 4.31607 -0.256841 -5.4342 -18.1319 11.7677 -26.6911 2.39022 78.9537 2.24352 50.9631 -1.65398 -3.52348 -0.0489061 0.598282 -0.120042 4.95726 -3.5512 
29.3728 94.6296 -203.789 73.4618 -78.3612 -16.0041 -70.1915 0 88.8779 121.829 63.8833 -34.5794 11.3677 16.7298 2.60227 -148.782 19.3325 170.609 -147.211 55.775 163.969 2.53965 0.00508555 -26.24 -78.4038 33.681 -106.957 1.66498 -0.0893121 -51.0936 5.68644 -0.578705 -9.43584 0.20526 -0.219728 25.9562 -54.3902 -53.6058 89.0755 5.15174 -2.95542 39.7384 3.88412 0.042017 1.10014 -38.6374 -2.69287 83.0549 -113.125 85.8873 109.046 4.1887 8.91908 -0.302648 -7.58198 -31.5407 12.0254 -28.5125 2.22177 80.9697 2.92127 51.9674 1.33805 -2.63071 -0.324455 0.503 -5.31587 15.7079 0.636367 
29.7698 92.3963 -189.784 87.6691 -78.6735 0.0336213 -70.1915 0 88.8779 128.301 64.2615 -38.056 9.51811 18.6329 2.46463 -144.692 21.2237 168.076 -146.541 58.2543 164.245 2.31255 -0.517367 -24.4858 -76.6807 32.9889 -106.701 5.0916 1.59125 -66.4004 3.55771 -0.325957 -8.13811 0.302559 -0.999241 24.9191 -53.5103 -53.1568 90.9265 4.78764 -2.46899 40.543 2.60139 0.0228119 0.935038 -33.8532 -0.24523 81.5863 -114.664 85.7974 110.095 5.32219 4.46154 -0.639338 -8.03466 -32.751 8.56094 -33.5047 6.25128 80.0479 5.39273 60.6048 5.09723 -7.01231 -0.514263 1.02665 6.74175 7.45826 -21.3877 
29.5556 90.8414 -176.544 83.0966 -80.0968 -1.21386 -70.1915 0 88.8779 129.261 66.6937 -35.9486 9.71773 19.9413 4.14802 -145.525 22.8132 168.719 -146.432 59.9687 164.95 2.61561 0.0348584 -27.0242 -77.5712 30.3231 -106.218 6.5163 1.33095 -77.0426 4.44913 -0.298056 -5.63823 0.320928 -1.19965 23.8954 -58.0645 -50.6663 93.2323 5.3783 -3.36527 38.2477 1.03474 0.00485898 0.867774 -25.4027 4.25464 80.2889 -42.052 84.2931 32.684 3.94674 2.72797 -0.48601 -8.06239 -34.1227 11.5514 -34.6927 12.2578 78.9527 9.85344 70.8791 1.96547 -6.24831 -2.64969 0.973208 9.18611 -5.901 -22.4441 
29.4273 91.2924 -164.727 73.8286 -79.7209 -12.7166 -70.1915 0 88.8779 127.268 67.8566 -36.8874 8.54407 20.4103 4.10504 -146.213 23.1647 167.461 -146.458 60.4748 165.009 2.60185 -0.294597 -27.4347 -80.5533 31.6359 -103.562 5.93898 0.985216 -80.383 4.16228 -0.282799 -5.72012 0.295155 -0.934272 25.0523 -60.506 -48.5006 96.6499 3.56971 -1.10912 36.858 4.2355 0.0739374 1.97063 -22.0927 2.51054 82.9076 -8.74023 69.2294 -2.77385 3.13742 5.22166 -0.259056 -6.92098 -28.6015 18.1794 -37.7741 10.2419 78.4618 16.5149 76.9819 -2.24703 -5.0387 -4.588 0.906909 9.20986 -10.0705 -20.1021 
30.3475 92.0075 -153.792 79.0109 -79.3089 -14.3869 -70.1915 0 88.8779 126.11 67.1303 -41.5309 9.05907 20.712 0.101639 -147.174 23.4477 167.556 -152.057 61.8711 169.53 2.49812 -0.677587 -26.9178 -82.314 32.2061 -102.098 -1.67016 -0.0390748 -82.8309 7.68676 -0.388208 -3.94881 0.262866 -0.671618 24.8416 -60.3053 -48.6308 99.5322 2.34143 0.389223 40.027 4.4644 0.141025 3.83194 -25.6595 -4.82415 85.298 -4.49364 54.8528 -8.87132 0.019073 7.8065 0.440057 -5.88591 -15.38 20.6454 -38.2676 0.905953 79.3751 61.8284 85.9207 -56.4167 -6.48637 -3.73021 1.01292 -7.55594 12.2444 7.29816 
31.8037 92.0747 -141.717 92.0606 -85.3063 -4.83427 -70.1915 0 88.8779 131.528 66.3505 -47.2189 10.9412 22.4645 -4.7992 -147.385 23.4707 168.444 -154.374 62.3069 173.007 2.49467 -1.13013 -27.7191 -85.6827 30.6729 -100.344 -6.87478 -0.326654 -84.7208 6.23911 -0.252292 -2.83719 0.268201 -0.725472 24.0988 -58.509 -48.6791 102.058 3.81677 -1.21921 46.7953 2.48388 0.100656 5.81139 -32.3935 -5.78275 85.3535 -4.05434 52.9755 -8.07702 -1.5786 7.90611 0.748968 -5.45036 -12.176 18.9378 -37.6531 -0.393663 84.4396 142.711 83.7292 -139.953 -6.58834 -3.5005 1.01881 -2.7544 14.1009 -3.51102 
31.8206 90.1814 -129.073 -110.468 -86.8865 152.758 -70.1915 0 88.8779 134.737 66.7782 -50.5308 10.9526 23.7151 -4.79266 -145.906 23.2025 170.007 -152.751 61.7388 172.575 2.699 -0.263251 -28.4708 -87.9863 29.4006 -98.7074 -3.1187 -0.0608875 -84.3217 6.59998 -0.312378 -3.59007 0.238933 -0.45805 22.7462 -57.0488 -49.9094 102.599 9.99792 -5.45396 54.8126 1.84202 0.0610678 5.34356 -37.6033 0.438906 87.8409 -6.66127 62.2289 -8.83706 5.91479 6.87296 -0.683809 -6.36568 -23.7769 14.3241 -33.8306 5.23815 87.036 150.852 81.8233 -147.276 -6.60633 -0.453286 0.97817 7.79643 -11.6529 -13.653 
32.5979 88.6759 -117.841 -69.3112 -85.3389 -168.76 -70.1915 0 88.8779 123.953 67.8176 -42.8323 10.0725 21.9289 -3.72823 -146.643 22.8086 171.894 -154.342 61.4079 174.483 2.72111 0.0657898 -28.1214 -91.8463 28.8502 -95.296 2.69089 0.471488 -80.6153 6.42654 -0.450745 -6.06281 0.126053 0.722244 22.1097 -56.9106 -52.2495 104.352 15.1173 -8.31191 57.5931 1.95187 0.0649233 5.2041 -37.7881 0.577437 92.9096 -10.611 70.5931 -4.77702 9.217 8.89192 -1.29034 -9.33541 -40.3341 10.6871 -23.6422 2.79932 87.0776 146.864 82.7141 -142.441 -6.19912 -5.65324 1.02089 8.37655 -13.5954 -14.0929 
33.1163 89.6817 -107.541 -43.4478 -85.7539 -143.502 -70.1915 0 88.8779 121.66 65.3274 -40.0745 9.58339 19.7425 -4.75782 -150.534 23.0296 172.397 -155.352 61.6451 174.713 2.42986 -0.517455 -25.8474 -94.4159 31.3407 -94.6029 5.81624 1.63991 -70.0706 8.37195 -0.667612 -7.15961 0.0720247 1.03267 23.8411 -58.9168 -52.9814 106.339 9.73556 -5.58441 52.9568 1.36662 0.035418 5.04031 -39.1957 0.164037 93.2162 -18.5278 77.058 -1.54498 5.25312 5.70651 -0.595793 -8.60332 -36.6767 10.8342 -19.8243 -1.76322 82.0204 29.8369 83.6074 -27.1253 -6.20704 -4.26046 0.99714 8.75551 -17.8509 -10.9725 
32.0064 91.0278 -97.1232 -67.0723 -81.9101 -165.656 -70.1915 0 88.8779 130.235 65.0116 -46.7016 9.46395 21.7024 -3.53417 -151.696 24.4448 173.169 -154.201 63.0179 175.357 2.47559 -1.25327 -27.7247 -92.5109 30.4519 -98.037 4.77093 2.17544 -53.8026 7.33901 -0.694473 -8.7521 0.0719979 0.976257 24.3081 -60.8858 -52.7822 107.643 6.00219 -3.25083 46.8792 1.59912 0.0502298 5.49194 -39.6373 6.96213 93.8613 -56.6489 84.3437 33.3545 0.60258 0.29066 -0.165867 -4.6404 -11.8402 12.9046 -24.1331 3.96965 78.6133 7.10236 70.2638 -4.89132 -6.24963 -1.75456 0.958149 5.30905 -10.8256 -5.46573 
31.1878 91.0756 -86.6567 -58.3544 -82.3419 -154.703 -70.1915 0 88.8779 132.236 64.2063 -45.4707 9.4576 21.2368 -2.84155 -151.03 25.2289 172.193 -154.519 64.0037 176.497 2.5354 -0.961971 -27.8889 -87.6146 29.5679 -100.633 4.50296 2.86265 -41.3245 5.35809 -0.49153 -8.33779 0.0221882 1.35424 24.6733 -61.7729 -51.134 109.33 8.88029 -6.26324 45.1804 1.8879 0.067369 5.70714 -34.879 7.38325 87.6534 -86.9469 85.7193 74.4678 2.37746 2.61097 -0.266092 -5.9344 -19.0246 17.3937 -27.5449 6.39496 75.5857 6.22576 66.5665 -1.12684 -5.4679 0.904611 0.811932 6.64944 2.56753 -19.1346 
30.9382 90.2151 -75.4583 -53.8083 -84.7203 -151.402 -70.1915 0 88.8779 132.241 63.4052 -45.1156 9.33499 20.6652 -3.28774 -149.513 26.4869 170.496 -154.81 65.5195 177.159 2.46891 -0.955267 -27.0728 -81.3681 29.1263 -101.368 3.51585 2.3243 -31.9097 7.19058 -0.677479 -8.70186 0.0635568 1.03816 24.3999 -60.448 -47.924 112.766 12.8108 -9.43823 47.6704 2.7952 0.107798 5.30326 -32.0717 2.1945 82.6313 -46.0277 84.9035 39.4683 3.27843 4.2769 -0.323037 -6.90033 -27.9883 16.2835 -33.3382 5.78787 77.4687 9.16877 72.4075 -4.62479 -6.67024 -7.76724 1.08374 8.50279 0.581673 -23.314 
29.4714 89.5831 -65.5963 -49.2604 -81.7841 -146.243 -70.1915 0 88.8779 134.156 65.1561 -45.4714 8.66929 22.0319 -2.11064 -150.831 27.9915 170.621 -155.852 67.1955 178.804 2.52112 -0.717152 -27.2595 -73.3879 28.3196 -101.968 3.13126 2.28262 -23.5476 7.72765 -0.71033 -8.47134 0.143801 0.581237 21.6888 -62.1839 -47.2513 115.014 17.2364 -11.5888 52.5679 4.04019 0.175905 5.52033 -27.1025 4.42329 79.6224 -15.3312 76.8283 4.40884 3.25854 0.287249 -0.493048 -7.24414 -30.7717 16.1764 -37.1744 12.7694 83.4513 11.2747 73.9421 -3.19577 -5.89957 -3.79227 0.961614 11.8281 -20.1133 -23.9606 
